<svg id="Layer_1" data-name="Layer 1" xmlns="http://www.w3.org/2000/svg" viewBox="0 0 338.76 294.89"><defs><style>.cls-1{fill:#e91c24;}</style></defs><path class="cls-1" d="M227.05,124.07l22.27,39-18.56,96.51,29.69,52,29.69-52L271.59,163l22.1-39S251.17,120.36,227.05,124.07Z" transform="translate(-92.5 -122.42)"/><path d="M210.34,127.78s-35.26,27.84-39,37.12c0,0,10,80.5,89,180.83,0,0,73.39-90.82,90.09-181.76,0,0-24.13-26-42.69-39h38.58s35.66,26,78.34,74.23l-50.11,13,56.68,23.14s-82.06,119.8-169.58,182c0,0-158-119.72-169.18-181L146.67,217l-48.6-21.45S149.4,141.7,170.44,125Z" transform="translate(-92.5 -122.42)"/></svg>