<svg id="Layer_1" data-name="Layer 1" xmlns="http://www.w3.org/2000/svg" viewBox="0 0 299.61 276.01"><defs><style>.cls-1{fill:#f39073;}.cls-2{fill:#c7634b;}.cls-3{fill:#e91c24;}</style></defs><path class="cls-1" d="M263,342v40.48s19.5-1,29.5-26,18-28,22-29,60-19,85-74-23.64-8-27.32-3.5-7.68,10.5-18.68,17.5c0,0,18-31-3-22s-28,16-44,23S267.5,279.5,263,342Z" transform="translate(-107 -106.47)"/><path class="cls-2" d="M353.5,267.5s-5,6-23,11-16,16-2,12,45.78-24.15,58.89-54.57c0,0-11.53,9.57-15.21,14.07S363.5,261.5,353.5,267.5Z" transform="translate(-107 -106.47)"/><path class="cls-1" d="M254,342v40.48s-19.5-1-29.5-26-18-28-22-29-60-19-85-74,23.64-8,27.32-3.5,7.68,10.5,18.68,17.5c0,0-18-31,3-22s28,16,44,23S249.5,279.5,254,342Z" transform="translate(-107 -106.47)"/><path class="cls-2" d="M163.5,267.5s5,6,23,11,16,16,2,12-45.78-24.15-58.89-54.57c0,0,11.53,9.57,15.21,14.07S153.5,261.5,163.5,267.5Z" transform="translate(-107 -106.47)"/><path class="cls-3" d="M107,198s15.39-48.23,75.19-47.11c0,0,41.81,3.67,71.81,49.89,0,0,25.11-48.55,80.81-49.91,0,0,49.7-1.81,64.69,49.91,0,0,3-87.28-77-94.28,0,0-44-1.48-68.5,37.26,0,0-18.79-36.28-67.14-37.27C186.86,106.49,119.5,102.5,107,198Z" transform="translate(-107 -106.47)"/></svg>