<svg id="Layer_1" data-name="Layer 1" xmlns="http://www.w3.org/2000/svg" viewBox="0 0 351.31 243.07"><defs><style>.cls-1{fill:#1a1309;}.cls-2{fill:#fec099;}.cls-3{fill:#9a754d;}</style></defs><path class="cls-1" d="M375,249v69.6H337.18s-15.49.62-17.49-17.49v-20s2-28.38,31-32.24Z" transform="translate(-74.69 -126)"/><path class="cls-1" d="M370.69,249v69.6h37.82s15.49.62,17.49-17.49v-20s-2-28.38-31-32.24Z" transform="translate(-74.69 -126)"/><path class="cls-2" d="M130,249v69.6H92.18s-15.49.62-17.49-17.49v-20s2-28.38,31-32.24Z" transform="translate(-74.69 -126)"/><path class="cls-2" d="M125.69,249v69.6h37.82s15.49.62,17.49-17.49v-20s-2-28.38-31-32.24Z" transform="translate(-74.69 -126)"/><circle class="cls-2" cx="53.31" cy="70" r="35"/><circle class="cls-1" cx="298.31" cy="70" r="35"/><circle class="cls-3" cx="175.31" cy="61" r="61"/><path class="cls-3" d="M212.65,264.13s34.41,20.12,74.88,0c0,0,56.54-5,67.51,56.43v22.28s.56,24.31-26.24,26.23H171.38s-25.09-.4-26.23-26.23V327.09S144.3,264.25,212.65,264.13Z" transform="translate(-74.69 -126)"/></svg>